<?xml version="1.0" encoding="utf-8"?>
<!-- Generator: Adobe Illustrator 26.4.1, SVG Export Plug-In . SVG Version: 6.00 Build 0)  -->
<svg version="1.1" id="Слой_1" xmlns="http://www.w3.org/2000/svg" xmlns:xlink="http://www.w3.org/1999/xlink" x="0px" y="0px"
	 viewBox="0 0 483 116" style="enable-background:new 0 0 483 116;" xml:space="preserve">
<style type="text/css">
	.st0{fill:#141419;}
	.st1{fill:#FF6A13;}
	.st2{fill:#FFFFFF;}
</style>
<g>
	<path class="st0" d="M57.6,5.8h367.2c28.6,0,51.8,23.2,51.8,51.8l0,0c0,28.6-23.2,51.8-51.8,51.8H57.6C29,109.4,5.8,86.2,5.8,57.6
		l0,0C5.9,29,29.1,5.8,57.6,5.8z"/>
	<path class="st1" d="M424.8,115.1H57.6C25.9,115.1,0,89.3,0,57.6C0.2,25.9,26,0,57.6,0h367.2c31.7,0,57.5,25.8,57.5,57.6
		S456.5,115.1,424.8,115.1z M57.6,11.6c-25.3,0-46,20.7-46,46.1c0,25.4,20.7,46,46,46h367.2c25.4,0,46-20.7,46-46s-20.7-46-46-46
		H57.6z"/>
</g>
<path class="st1" d="M424.6,94.1c-20.1,0-36.5-16.4-36.5-36.5S404.5,21,424.6,21s36.5,16.4,36.5,36.5S444.8,94.1,424.6,94.1z"/>
<path class="st2" d="M128.6,86.3h-7.7c-1.7,0-2.8-1.4-2.5-3.1l9.1-51.3c0.3-1.7,2-3.1,3.7-3.1h7.7c1.7,0,2.8,1.4,2.5,3.1l-9.1,51.3
	C131.9,85,130.3,86.3,128.6,86.3z"/>
<path class="st2" d="M220.9,28.9c1.7,0,2.8,1.4,2.5,3.1l-7.1,41.4h19c1.7,0,2.8,1.4,2.5,3.1l-1.2,6.9c-0.3,1.7-2,3.1-3.7,3.1h-26.1
	l0,0H203c-1.7,0-2.8-1.4-2.5-3.1l9.1-51.4c0.3-1.7,2-3.1,3.7-3.1H220.9z"/>
<path class="st2" d="M371.9,28.8c1.7,0,2.8,1.4,2.5,3.1l-1.2,6.9c-0.3,1.7-2,3.1-3.7,3.1h-22.6l-1.7,9.6h20.9c1.7,0,2.8,1.4,2.5,3.1
	l-1.1,6.1c-0.3,1.7-2,3.1-3.7,3.1H343l-1.7,9.6H364c1.7,0,2.8,1.4,2.5,3.1l-1.2,6.8c-0.3,1.7-2.8,3.1-4.5,3.1h-28.7l0,0h-3.8
	c-1.7,0-2.8-1.4-2.5-3.1l9-51.4c0.3-1.7,2-3.1,3.7-3.1C338.5,28.8,371.9,28.8,371.9,28.8z"/>
<path class="st2" d="M185.1,31.9l-5.4,30.6l-10.8-30.8c-0.6-1.7-2.2-2.8-4.2-2.8h-9c-1.7,0-3.3,1.4-3.7,3.1l-9.1,51.4
	c-0.3,1.7,0.8,3.1,2.5,3.1h7.7c1.7,0,3.3-1.4,3.7-3.1l5.4-30.6l10.5,30.8c0.6,1.7,2.2,2.8,4.2,2.8h9.4c1.7,0,3.3-1.4,3.7-3.1
	l9.1-51.4c0.3-1.7-0.8-3.1-2.5-3.1h-7.7C187.1,28.9,185.4,30.2,185.1,31.9z"/>
<path class="st2" d="M106.1,30.7L90,66.1V31.3c0-1.3-1.1-2.4-2.4-2.4h-9.5c-1.2,0-2.3,0.7-2.8,1.8L59.4,66V31.3
	c0-1.3-1.1-2.4-2.4-2.4h-9c-1.3,0-2.4,1.1-2.4,2.4V84c0,1.3,1.1,2.4,2.4,2.4h12.4c1.2,0,2.3-0.7,2.8-1.8l15.3-34.8V84
	c0,1.3,1.1,2.4,2.4,2.4h11.7c1.2,0,2.3-0.7,2.8-1.8l24.4-52.3c0.7-1.6-0.4-3.4-2.2-3.4h-8.8C107.7,28.9,106.6,29.6,106.1,30.7
	L106.1,30.7z"/>
<path class="st2" d="M254,86.3h-7.7c-1.7,0-2.8-1.4-2.5-3.1l9.1-51.3c0.3-1.7,2-3.1,3.7-3.1h7.7c1.7,0,2.8,1.4,2.5,3.1l-9.1,51.3
	C257.3,84.9,255.7,86.3,254,86.3z"/>
<path class="st2" d="M310.4,31.9L305,62.5l-10.8-30.8c-0.6-1.7-2.2-2.8-4.2-2.8h-9c-1.7,0-3.3,1.4-3.7,3.1l-9.1,51.4
	c-0.3,1.7,0.8,3.1,2.5,3.1h7.7c1.7,0,3.3-1.4,3.7-3.1l5.4-30.6L298,83.6c0.6,1.7,2.2,2.8,4.2,2.8h9.4c1.7,0,3.3-1.4,3.7-3.1
	l9.1-51.4c0.3-1.7-0.8-3.1-2.5-3.1H314C312.3,28.9,310.7,30.2,310.4,31.9z"/>
</svg>
